<mxfile>
    <diagram id="Om7NCa6se1HcKf3GKLbe" name="Page-1">
        <mxGraphModel dx="1916" dy="1161" grid="1" gridSize="10" guides="1" tooltips="1" connect="1" arrows="1" fold="1" page="1" pageScale="1" pageWidth="827" pageHeight="1169" background="#ffffff" math="0" shadow="0">
            <root>
                <mxCell id="0"/>
                <mxCell id="1" parent="0"/>
                <mxCell id="90" style="edgeStyle=orthogonalEdgeStyle;rounded=1;orthogonalLoop=1;jettySize=auto;html=1;entryX=0.5;entryY=0;entryDx=0;entryDy=0;fontFamily=Ubuntu Mono;fontSource=https%3A%2F%2Ffonts.googleapis.com%2Fcss%3Ffamily%3DUbuntu%2BMono;strokeColor=#333333;" parent="1" source="9" target="61" edge="1">
                    <mxGeometry relative="1" as="geometry"/>
                </mxCell>
                <mxCell id="9" value="&lt;font data-font-src=&quot;https://fonts.googleapis.com/css?family=Fira+Code&quot; style=&quot;font-size: 14px&quot; face=&quot;Lucida Console&quot; color=&quot;#333333&quot;&gt;Dissect data&lt;/font&gt;" style="rounded=1;whiteSpace=wrap;html=1;strokeWidth=1;fillColor=none;strokeColor=#333333;" parent="1" vertex="1">
                    <mxGeometry x="391.31" y="344" width="127.38" height="40" as="geometry"/>
                </mxCell>
                <mxCell id="10" value="" style="outlineConnect=0;dashed=0;verticalLabelPosition=bottom;verticalAlign=top;align=center;html=1;shape=mxgraph.aws3.lambda_function;fillColor=#F58534;gradientColor=none;strokeColor=#f0f0f0;strokeWidth=1;" parent="1" vertex="1">
                    <mxGeometry x="505.12" y="324" width="30" height="30" as="geometry"/>
                </mxCell>
                <mxCell id="23" value="&lt;div style=&quot;text-align: left ; font-size: 10px&quot;&gt;&lt;font face=&quot;Lucida Console&quot;&gt;&lt;font data-font-src=&quot;https://fonts.googleapis.com/css?family=Ubuntu+Mono&quot; color=&quot;#333333&quot;&gt;&amp;nbsp; &amp;nbsp; {&lt;/font&gt;&lt;/font&gt;&lt;/div&gt;&lt;div style=&quot;text-align: left ; font-size: 10px&quot;&gt;&lt;font face=&quot;Lucida Console&quot; color=&quot;#333333&quot;&gt;&amp;nbsp; &amp;nbsp; &amp;nbsp;...,&lt;/font&gt;&lt;/div&gt;&lt;div style=&quot;text-align: left ; font-size: 10px&quot;&gt;&lt;font data-font-src=&quot;https://fonts.googleapis.com/css?family=Ubuntu+Mono&quot; face=&quot;Lucida Console&quot; color=&quot;#333333&quot;&gt;&amp;nbsp; &amp;nbsp; &amp;nbsp;&quot;switchpointTrio&quot;: {&lt;/font&gt;&lt;/div&gt;&lt;div style=&quot;text-align: left ; font-size: 10px&quot;&gt;&lt;font face=&quot;Lucida Console&quot; color=&quot;#333333&quot;&gt;&lt;font data-font-src=&quot;https://fonts.googleapis.com/css?family=Ubuntu+Mono&quot;&gt;&amp;nbsp; &amp;nbsp; &amp;nbsp; &amp;nbsp;&quot;switchpoint&quot;: 21,&lt;/font&gt;&lt;br&gt;&lt;/font&gt;&lt;/div&gt;&lt;div style=&quot;text-align: left ; font-size: 10px&quot;&gt;&lt;font style=&quot;font-size: 10px&quot; data-font-src=&quot;https://fonts.googleapis.com/css?family=Roboto+Mono&quot; face=&quot;Lucida Console&quot; color=&quot;#333333&quot;&gt;&lt;font data-font-src=&quot;https://fonts.googleapis.com/css?family=Ubuntu+Mono&quot; style=&quot;font-size: 10px&quot;&gt;&amp;nbsp; &amp;nbsp; &amp;nbsp; &amp;nbsp;&lt;/font&gt;&lt;font data-font-src=&quot;https://fonts.googleapis.com/css?family=Ubuntu+Mono&quot; style=&quot;font-size: 10px&quot;&gt;&quot;preSwitchAverage&quot;: 30,&lt;/font&gt;&lt;/font&gt;&lt;/div&gt;&lt;div style=&quot;text-align: left ; font-size: 10px&quot;&gt;&lt;font style=&quot;font-size: 10px&quot; data-font-src=&quot;https://fonts.googleapis.com/css?family=Roboto+Mono&quot; face=&quot;Lucida Console&quot; color=&quot;#333333&quot;&gt;&lt;font data-font-src=&quot;https://fonts.googleapis.com/css?family=Ubuntu+Mono&quot; style=&quot;font-size: 10px&quot;&gt;&amp;nbsp; &amp;nbsp; &amp;nbsp; &amp;nbsp;&lt;/font&gt;&lt;font data-font-src=&quot;https://fonts.googleapis.com/css?family=Ubuntu+Mono&quot; style=&quot;font-size: 10px&quot;&gt;&quot;postSwitchAverage&quot;: 10&lt;/font&gt;&lt;/font&gt;&lt;/div&gt;&lt;div style=&quot;text-align: left ; font-size: 10px&quot;&gt;&lt;font style=&quot;font-size: 10px&quot; data-font-src=&quot;https://fonts.googleapis.com/css?family=Roboto+Mono&quot;&gt;&lt;font data-font-src=&quot;https://fonts.googleapis.com/css?family=Ubuntu+Mono&quot; style=&quot;font-size: 10px&quot; face=&quot;Lucida Console&quot; color=&quot;#333333&quot;&gt;&amp;nbsp; &amp;nbsp; &amp;nbsp;}&lt;/font&gt;&lt;/font&gt;&lt;/div&gt;&lt;div style=&quot;text-align: left ; font-size: 10px&quot;&gt;&lt;font style=&quot;font-size: 10px&quot; data-font-src=&quot;https://fonts.googleapis.com/css?family=Roboto+Mono&quot;&gt;&lt;font data-font-src=&quot;https://fonts.googleapis.com/css?family=Ubuntu+Mono&quot; style=&quot;font-size: 10px&quot; face=&quot;Lucida Console&quot; color=&quot;#333333&quot;&gt;&amp;nbsp; &amp;nbsp; }&amp;nbsp;&lt;/font&gt;&lt;/font&gt;&lt;/div&gt;" style="text;html=1;align=center;verticalAlign=middle;resizable=0;points=[];autosize=1;fontFamily=Ubuntu Mono;fontSource=https%3A%2F%2Ffonts.googleapis.com%2Fcss%3Ffamily%3DUbuntu%2BMono;" parent="1" vertex="1">
                    <mxGeometry x="205.12" y="394" width="200" height="110" as="geometry"/>
                </mxCell>
                <mxCell id="40" style="edgeStyle=orthogonalEdgeStyle;rounded=0;orthogonalLoop=1;jettySize=auto;html=1;exitX=1;exitY=0.25;exitDx=0;exitDy=0;fontFamily=Ubuntu Mono;fontSource=https%3A%2F%2Ffonts.googleapis.com%2Fcss%3Ffamily%3DUbuntu%2BMono;dashed=1;strokeColor=#333333;" parent="1" source="37" target="39" edge="1">
                    <mxGeometry relative="1" as="geometry">
                        <mxPoint x="690" y="194" as="targetPoint"/>
                        <Array as="points">
                            <mxPoint x="505" y="204"/>
                        </Array>
                    </mxGeometry>
                </mxCell>
                <mxCell id="41" style="edgeStyle=orthogonalEdgeStyle;rounded=0;orthogonalLoop=1;jettySize=auto;html=1;fontFamily=Ubuntu Mono;fontSource=https%3A%2F%2Ffonts.googleapis.com%2Fcss%3Ffamily%3DUbuntu%2BMono;entryX=1;entryY=0.5;entryDx=0;entryDy=0;dashed=1;strokeColor=#333333;" parent="1" target="37" edge="1">
                    <mxGeometry relative="1" as="geometry">
                        <mxPoint x="690" y="204" as="sourcePoint"/>
                        <Array as="points"/>
                    </mxGeometry>
                </mxCell>
                <mxCell id="89" style="edgeStyle=orthogonalEdgeStyle;rounded=1;orthogonalLoop=1;jettySize=auto;html=1;entryX=0.5;entryY=0;entryDx=0;entryDy=0;fontFamily=Ubuntu Mono;fontSource=https%3A%2F%2Ffonts.googleapis.com%2Fcss%3Ffamily%3DUbuntu%2BMono;strokeColor=#333333;" parent="1" source="37" target="9" edge="1">
                    <mxGeometry relative="1" as="geometry"/>
                </mxCell>
                <mxCell id="37" value="&lt;font data-font-src=&quot;https://fonts.googleapis.com/css?family=Fira+Code&quot; style=&quot;font-size: 14px&quot; face=&quot;Lucida Console&quot; color=&quot;#333333&quot;&gt;Load data&lt;/font&gt;" style="rounded=1;whiteSpace=wrap;html=1;strokeWidth=1;fillColor=none;strokeColor=#333333;" parent="1" vertex="1">
                    <mxGeometry x="405.12" y="184" width="100" height="40" as="geometry"/>
                </mxCell>
                <mxCell id="39" value="" style="outlineConnect=0;fontColor=#232F3E;gradientColor=none;fillColor=#277116;strokeColor=none;dashed=0;verticalLabelPosition=bottom;verticalAlign=top;align=center;html=1;fontSize=12;fontStyle=0;aspect=fixed;pointerEvents=1;shape=mxgraph.aws4.bucket;sketch=0;" parent="1" vertex="1">
                    <mxGeometry x="697.4999999999999" y="184" width="38.46" height="40" as="geometry"/>
                </mxCell>
                <mxCell id="47" value="&lt;font style=&quot;font-size: 10px&quot; data-font-src=&quot;https://fonts.googleapis.com/css?family=Roboto+Mono&quot; face=&quot;Lucida Console&quot; color=&quot;#333333&quot;&gt;Receivers data bucket&lt;/font&gt;" style="text;html=1;align=center;verticalAlign=middle;resizable=0;points=[];autosize=1;fontFamily=Ubuntu Mono;" parent="1" vertex="1">
                    <mxGeometry x="646.7299999999999" y="224" width="140" height="20" as="geometry"/>
                </mxCell>
                <mxCell id="91" style="edgeStyle=orthogonalEdgeStyle;rounded=1;orthogonalLoop=1;jettySize=auto;html=1;entryX=0.5;entryY=0;entryDx=0;entryDy=0;fontFamily=Ubuntu Mono;fontSource=https%3A%2F%2Ffonts.googleapis.com%2Fcss%3Ffamily%3DUbuntu%2BMono;strokeColor=#333333;" parent="1" source="61" target="65" edge="1">
                    <mxGeometry relative="1" as="geometry"/>
                </mxCell>
                <mxCell id="61" value="&lt;font data-font-src=&quot;https://fonts.googleapis.com/css?family=Ubuntu+Mono&quot; style=&quot;font-size: 14px&quot; face=&quot;Lucida Console&quot; color=&quot;#333333&quot;&gt;Add extra anomaly metrics&lt;/font&gt;" style="rounded=1;whiteSpace=wrap;html=1;strokeWidth=1;fillColor=none;strokeColor=#333333;" parent="1" vertex="1">
                    <mxGeometry x="334.51" y="504" width="241.22" height="40" as="geometry"/>
                </mxCell>
                <mxCell id="62" value="" style="outlineConnect=0;dashed=0;verticalLabelPosition=bottom;verticalAlign=top;align=center;html=1;shape=mxgraph.aws3.lambda_function;fillColor=#F58534;gradientColor=none;strokeColor=#f0f0f0;strokeWidth=1;" parent="1" vertex="1">
                    <mxGeometry x="488.69000000000005" y="164" width="30" height="30" as="geometry"/>
                </mxCell>
                <mxCell id="97" style="edgeStyle=orthogonalEdgeStyle;rounded=0;orthogonalLoop=1;jettySize=auto;html=1;entryX=0.5;entryY=0;entryDx=0;entryDy=0;strokeColor=#333333;" parent="1" target="71" edge="1">
                    <mxGeometry relative="1" as="geometry">
                        <mxPoint x="329.12" y="734" as="sourcePoint"/>
                    </mxGeometry>
                </mxCell>
                <mxCell id="98" style="edgeStyle=orthogonalEdgeStyle;rounded=0;orthogonalLoop=1;jettySize=auto;html=1;entryX=0.5;entryY=0;entryDx=0;entryDy=0;strokeColor=#333333;" parent="1" target="72" edge="1">
                    <mxGeometry relative="1" as="geometry">
                        <mxPoint x="579.12" y="734" as="sourcePoint"/>
                    </mxGeometry>
                </mxCell>
                <mxCell id="65" value="&lt;font data-font-src=&quot;https://fonts.googleapis.com/css?family=Roboto+Mono&quot;&gt;&lt;font data-font-src=&quot;https://fonts.googleapis.com/css?family=Fira+Code&quot; color=&quot;#333333&quot;&gt;&lt;font data-font-src=&quot;https://fonts.googleapis.com/css?family=Fira+Code&quot; style=&quot;font-size: 14px&quot;&gt;&lt;font face=&quot;Lucida Console&quot;&gt;Anomaly?&lt;/font&gt;&lt;br&gt;&lt;/font&gt;&lt;font style=&quot;font-size: 10px&quot;&gt;&lt;br&gt;&lt;font data-font-src=&quot;https://fonts.googleapis.com/css?family=Fira+Code&quot; face=&quot;Lucida Console&quot;&gt;(YES: preSwitchAverageOverPostSwitchAverage&lt;/font&gt;&lt;font data-font-src=&quot;https://fonts.googleapis.com/css?family=Fira+Code&quot; face=&quot;Fira Code&quot;&gt;&amp;gt;=&lt;/font&gt;&lt;font data-font-src=&quot;https://fonts.googleapis.com/css?family=Fira+Code&quot; face=&quot;Lucida Console&quot;&gt;2 AND 5&lt;/font&gt;&lt;font data-font-src=&quot;https://fonts.googleapis.com/css?family=Fira+Code&quot; face=&quot;Fira Code&quot;&gt;&amp;lt;=&lt;/font&gt;&lt;font data-font-src=&quot;https://fonts.googleapis.com/css?family=Fira+Code&quot; face=&quot;Lucida Console&quot;&gt;switchpoint&lt;/font&gt;&lt;font data-font-src=&quot;https://fonts.googleapis.com/css?family=Fira+Code&quot; face=&quot;Fira Code&quot;&gt;&amp;lt;=&lt;/font&gt;&lt;font data-font-src=&quot;https://fonts.googleapis.com/css?family=Fira+Code&quot; face=&quot;Lucida Console&quot;&gt;35)&lt;/font&gt;&lt;font face=&quot;fira code&quot;&gt;&amp;nbsp;&amp;nbsp;&lt;/font&gt;&lt;/font&gt;&lt;/font&gt;&lt;br style=&quot;font-family: &amp;#34;fira code&amp;#34;&quot;&gt;&lt;/font&gt;" style="rounded=1;whiteSpace=wrap;html=1;strokeWidth=1;fillColor=none;strokeColor=#333333;" parent="1" vertex="1">
                    <mxGeometry x="212.62" y="664" width="485" height="70" as="geometry"/>
                </mxCell>
                <mxCell id="67" value="&lt;div style=&quot;text-align: left ; font-size: 10px&quot;&gt;&lt;font face=&quot;Lucida Console&quot;&gt;&lt;font data-font-src=&quot;https://fonts.googleapis.com/css?family=Ubuntu+Mono&quot; color=&quot;#333333&quot;&gt;&amp;nbsp; &amp;nbsp; {&lt;/font&gt;&lt;/font&gt;&lt;/div&gt;&lt;div style=&quot;text-align: left ; font-size: 10px&quot;&gt;&lt;font face=&quot;Lucida Console&quot; color=&quot;#333333&quot;&gt;&amp;nbsp; &amp;nbsp; &amp;nbsp;...,&lt;/font&gt;&lt;/div&gt;&lt;div style=&quot;text-align: left ; font-size: 10px&quot;&gt;&lt;font style=&quot;font-size: 10px&quot; data-font-src=&quot;https://fonts.googleapis.com/css?family=Roboto+Mono&quot;&gt;&lt;font data-font-src=&quot;https://fonts.googleapis.com/css?family=Ubuntu+Mono&quot; style=&quot;font-size: 10px&quot; face=&quot;Lucida Console&quot; color=&quot;#333333&quot;&gt;&amp;nbsp; &amp;nbsp; &amp;nbsp;&quot;anomalyMetrics&quot;: {&lt;/font&gt;&lt;/font&gt;&lt;/div&gt;&lt;div style=&quot;text-align: left ; font-size: 10px&quot;&gt;&lt;font style=&quot;font-size: 10px&quot; data-font-src=&quot;https://fonts.googleapis.com/css?family=Roboto+Mono&quot;&gt;&lt;font data-font-src=&quot;https://fonts.googleapis.com/css?family=Ubuntu+Mono&quot; style=&quot;font-size: 10px&quot; face=&quot;Lucida Console&quot; color=&quot;#333333&quot;&gt;&amp;nbsp; &amp;nbsp; &amp;nbsp; &amp;nbsp;...,&lt;/font&gt;&lt;/font&gt;&lt;/div&gt;&lt;div style=&quot;text-align: left ; font-size: 10px&quot;&gt;&lt;font style=&quot;font-size: 10px&quot; data-font-src=&quot;https://fonts.googleapis.com/css?family=Roboto+Mono&quot;&gt;&lt;font data-font-src=&quot;https://fonts.googleapis.com/css?family=Ubuntu+Mono&quot; style=&quot;font-size: 10px&quot; face=&quot;Lucida Console&quot; color=&quot;#333333&quot;&gt;&amp;nbsp; &amp;nbsp; &amp;nbsp; &amp;nbsp;&quot;preSwitchAverageOverPostSwitchAverage&quot;: 3&lt;/font&gt;&lt;/font&gt;&lt;/div&gt;&lt;div style=&quot;text-align: left ; font-size: 10px&quot;&gt;&lt;font style=&quot;font-size: 10px&quot; data-font-src=&quot;https://fonts.googleapis.com/css?family=Roboto+Mono&quot;&gt;&lt;font data-font-src=&quot;https://fonts.googleapis.com/css?family=Ubuntu+Mono&quot; style=&quot;font-size: 10px&quot; face=&quot;Lucida Console&quot; color=&quot;#333333&quot;&gt;&amp;nbsp; &amp;nbsp; &amp;nbsp;}&amp;nbsp;&amp;nbsp;&lt;/font&gt;&lt;/font&gt;&lt;/div&gt;&lt;div style=&quot;text-align: left ; font-size: 10px&quot;&gt;&lt;font style=&quot;font-size: 10px&quot; data-font-src=&quot;https://fonts.googleapis.com/css?family=Roboto+Mono&quot;&gt;&lt;font data-font-src=&quot;https://fonts.googleapis.com/css?family=Ubuntu+Mono&quot; style=&quot;font-size: 10px&quot; face=&quot;Lucida Console&quot; color=&quot;#333333&quot;&gt;&amp;nbsp; &amp;nbsp; }&lt;/font&gt;&lt;/font&gt;&lt;/div&gt;" style="text;html=1;align=center;verticalAlign=middle;resizable=0;points=[];autosize=1;fontFamily=Ubuntu Mono;fontSource=https%3A%2F%2Ffonts.googleapis.com%2Fcss%3Ffamily%3DUbuntu%2BMono;" parent="1" vertex="1">
                    <mxGeometry x="125" y="559" width="310" height="100" as="geometry"/>
                </mxCell>
                <mxCell id="81" style="edgeStyle=orthogonalEdgeStyle;rounded=1;orthogonalLoop=1;jettySize=auto;html=1;exitX=0.5;exitY=1;exitDx=0;exitDy=0;fontFamily=Ubuntu Mono;fontSource=https%3A%2F%2Ffonts.googleapis.com%2Fcss%3Ffamily%3DUbuntu%2BMono;strokeColor=#333333;" parent="1" source="71" edge="1">
                    <mxGeometry relative="1" as="geometry">
                        <mxPoint x="455.1100000000001" y="994" as="targetPoint"/>
                    </mxGeometry>
                </mxCell>
                <mxCell id="71" value="&lt;font data-font-src=&quot;https://fonts.googleapis.com/css?family=Fira+Code&quot; style=&quot;font-size: 14px&quot; face=&quot;Lucida Console&quot; color=&quot;#333333&quot;&gt;Yes&lt;/font&gt;" style="rounded=1;whiteSpace=wrap;html=1;strokeWidth=1;fillColor=none;strokeColor=#333333;" parent="1" vertex="1">
                    <mxGeometry x="300.12000000000006" y="824" width="57.95" height="40" as="geometry"/>
                </mxCell>
                <mxCell id="83" style="edgeStyle=orthogonalEdgeStyle;rounded=1;orthogonalLoop=1;jettySize=auto;html=1;exitX=0.5;exitY=1;exitDx=0;exitDy=0;entryX=0.5;entryY=0;entryDx=0;entryDy=0;fontFamily=Ubuntu Mono;fontSource=https%3A%2F%2Ffonts.googleapis.com%2Fcss%3Ffamily%3DUbuntu%2BMono;strokeColor=#333333;" parent="1" source="72" edge="1">
                    <mxGeometry relative="1" as="geometry">
                        <mxPoint x="455.1100000000001" y="994" as="targetPoint"/>
                    </mxGeometry>
                </mxCell>
                <mxCell id="72" value="&lt;span style=&quot;font-size: 14px&quot;&gt;&lt;font face=&quot;Lucida Console&quot; color=&quot;#333333&quot;&gt;No&lt;/font&gt;&lt;/span&gt;" style="rounded=1;whiteSpace=wrap;html=1;strokeWidth=1;fillColor=none;strokeColor=#333333;" parent="1" vertex="1">
                    <mxGeometry x="550.12" y="824" width="57.95" height="40" as="geometry"/>
                </mxCell>
                <mxCell id="84" value="&lt;font data-font-src=&quot;https://fonts.googleapis.com/css?family=Roboto+Mono&quot; style=&quot;font-size: 10px&quot; face=&quot;Lucida Console&quot; color=&quot;#333333&quot;&gt;&quot;receiver#XXXXXXXX&quot;&lt;/font&gt;" style="text;html=1;align=center;verticalAlign=middle;resizable=0;points=[];autosize=1;fontFamily=Ubuntu Mono;" parent="1" vertex="1">
                    <mxGeometry x="264.09000000000003" y="944" width="130" height="20" as="geometry"/>
                </mxCell>
                <mxCell id="85" value="&lt;font data-font-src=&quot;https://fonts.googleapis.com/css?family=Roboto+Mono&quot; style=&quot;font-size: 10px&quot; face=&quot;Lucida Console&quot; color=&quot;#333333&quot;&gt;{}&lt;/font&gt;" style="text;html=1;align=center;verticalAlign=middle;resizable=0;points=[];autosize=1;fontFamily=Ubuntu Mono;" parent="1" vertex="1">
                    <mxGeometry x="564.0900000000001" y="944" width="30" height="20" as="geometry"/>
                </mxCell>
                <mxCell id="88" style="edgeStyle=orthogonalEdgeStyle;rounded=1;orthogonalLoop=1;jettySize=auto;html=1;entryX=0.5;entryY=0;entryDx=0;entryDy=0;fontFamily=Ubuntu Mono;fontSource=https%3A%2F%2Ffonts.googleapis.com%2Fcss%3Ffamily%3DUbuntu%2BMono;strokeColor=#333333;" parent="1" target="37" edge="1">
                    <mxGeometry relative="1" as="geometry">
                        <mxPoint x="455" y="64" as="sourcePoint"/>
                    </mxGeometry>
                </mxCell>
                <mxCell id="94" value="&lt;span style=&quot;font-family: &amp;#34;roboto mono&amp;#34; ; font-size: 10px&quot;&gt;&lt;br&gt;&lt;/span&gt;" style="text;html=1;align=center;verticalAlign=middle;resizable=0;points=[];autosize=1;" parent="1" vertex="1">
                    <mxGeometry x="169" y="254" width="20" height="20" as="geometry"/>
                </mxCell>
                <mxCell id="38" value="" style="outlineConnect=0;dashed=0;verticalLabelPosition=bottom;verticalAlign=top;align=center;html=1;shape=mxgraph.aws3.lambda_function;fillColor=#F58534;gradientColor=none;strokeColor=#f0f0f0;strokeWidth=1;" parent="1" vertex="1">
                    <mxGeometry x="560" y="484" width="30" height="30" as="geometry"/>
                </mxCell>
                <mxCell id="99" value="" style="outlineConnect=0;dashed=0;verticalLabelPosition=bottom;verticalAlign=top;align=center;html=1;shape=mxgraph.aws3.lambda_function;fillColor=#F58534;gradientColor=none;strokeColor=#f0f0f0;strokeWidth=1;" vertex="1" parent="1">
                    <mxGeometry x="180" y="1094" width="30" height="30" as="geometry"/>
                </mxCell>
                <mxCell id="100" value="&lt;font face=&quot;Lucida Console&quot; color=&quot;#333333&quot;&gt;AWS Lambda function&lt;/font&gt;" style="text;html=1;align=center;verticalAlign=middle;resizable=0;points=[];autosize=1;" vertex="1" parent="1">
                    <mxGeometry x="212.62000000000006" y="1099" width="150" height="20" as="geometry"/>
                </mxCell>
                <mxCell id="101" value="" style="outlineConnect=0;fontColor=#232F3E;gradientColor=none;fillColor=#277116;strokeColor=none;dashed=0;verticalLabelPosition=bottom;verticalAlign=top;align=center;html=1;fontSize=12;fontStyle=0;aspect=fixed;pointerEvents=1;shape=mxgraph.aws4.bucket;sketch=0;" vertex="1" parent="1">
                    <mxGeometry x="180.19" y="1134" width="29.81" height="31" as="geometry"/>
                </mxCell>
                <mxCell id="102" value="&lt;font face=&quot;Lucida Console&quot; color=&quot;#333333&quot;&gt;AWS S3 bucket&lt;/font&gt;" style="text;html=1;align=center;verticalAlign=middle;resizable=0;points=[];autosize=1;" vertex="1" parent="1">
                    <mxGeometry x="210.00000000000006" y="1139.5" width="110" height="20" as="geometry"/>
                </mxCell>
                <mxCell id="103" value="&lt;font face=&quot;Lucida Console&quot; color=&quot;#333333&quot;&gt;&lt;span style=&quot;font-size: 14px&quot;&gt;Start&lt;/span&gt;&lt;/font&gt;" style="ellipse;whiteSpace=wrap;html=1;aspect=fixed;shadow=0;sketch=0;strokeWidth=1;fontFamily=Ubuntu Mono;fontSource=https%3A%2F%2Ffonts.googleapis.com%2Fcss%3Ffamily%3DUbuntu%2BMono;fontColor=#ffffff;fillColor=#FFD966;strokeColor=none;" vertex="1" parent="1">
                    <mxGeometry x="425.05999999999995" y="4" width="60.12" height="60.12" as="geometry"/>
                </mxCell>
                <mxCell id="104" value="&lt;font data-font-src=&quot;https://fonts.googleapis.com/css?family=Fira+Code&quot; style=&quot;font-size: 14px&quot; color=&quot;#330000&quot; face=&quot;Lucida Console&quot;&gt;End&lt;/font&gt;" style="ellipse;whiteSpace=wrap;html=1;aspect=fixed;shadow=0;sketch=0;strokeWidth=1;fontFamily=Ubuntu Mono;fontSource=https%3A%2F%2Ffonts.googleapis.com%2Fcss%3Ffamily%3DUbuntu%2BMono;fillColor=#FFD966;strokeColor=none;" vertex="1" parent="1">
                    <mxGeometry x="425" y="994" width="60" height="60" as="geometry"/>
                </mxCell>
                <mxCell id="105" value="&lt;font face=&quot;Lucida Console&quot; color=&quot;#333333&quot;&gt;&lt;span style=&quot;font-size: 10px&quot;&gt;{&quot;receiverId&quot;: &quot;receiver#XXXXXXXX&quot;,&lt;br&gt;&lt;/span&gt;&lt;span style=&quot;font-size: 10px&quot;&gt;&amp;nbsp; &amp;nbsp; &amp;nbsp; &amp;nbsp;&quot;receiversDataBucket&quot;: &quot;receivers-data&quot;&lt;/span&gt;&lt;span style=&quot;font-size: 10px&quot;&gt;}&lt;/span&gt;&lt;/font&gt;" style="text;html=1;align=center;verticalAlign=middle;resizable=0;points=[];autosize=1;" vertex="1" parent="1">
                    <mxGeometry x="130" y="104" width="300" height="30" as="geometry"/>
                </mxCell>
                <mxCell id="106" value="&lt;span style=&quot;font-size: 10px&quot;&gt;&lt;font face=&quot;Lucida Console&quot; color=&quot;#333333&quot;&gt;{...,&quot;data&quot;: [31, 30, 29, 30, 30, ..., 30,&amp;nbsp;&lt;/font&gt;&lt;/span&gt;&lt;span style=&quot;font-size: 10px&quot;&gt;&lt;font face=&quot;Lucida Console&quot; color=&quot;#333333&quot;&gt;10, 11, 10, 10, 9, ..., 10]}&lt;/font&gt;&lt;br&gt;&lt;/span&gt;" style="text;html=1;align=center;verticalAlign=middle;resizable=0;points=[];autosize=1;" vertex="1" parent="1">
                    <mxGeometry y="264" width="440" height="20" as="geometry"/>
                </mxCell>
            </root>
        </mxGraphModel>
    </diagram>
</mxfile>